<?xml version="1.0" standalone="no"?>
<!DOCTYPE svg PUBLIC "-//W3C//DTD SVG 20010904//EN"
 "http://www.w3.org/TR/2001/REC-SVG-20010904/DTD/svg10.dtd">
<svg version="1.0" xmlns="http://www.w3.org/2000/svg"
 width="123.000000pt" height="123.000000pt" viewBox="0 0 123.000000 123.000000"
 preserveAspectRatio="xMidYMid meet">
<metadata>
Created by potrace 1.11, written by Peter Selinger 2001-2013
</metadata>
<g transform="translate(0.000000,123.000000) scale(0.100000,-0.100000)"
fill="#000000" stroke="none">
<path d="M310 903 c-135 -90 -250 -167 -257 -171 -14 -8 -21 -116 -10 -148 4
-12 17 -24 28 -27 12 -3 19 -9 16 -14 -2 -4 0 -17 4 -28 9 -18 9 -18 5 3 -2
12 0 22 5 22 5 0 9 -5 9 -11 0 -5 5 -7 10 -4 5 3 10 -3 10 -15 0 -14 -4 -19
-12 -14 -7 4 -10 3 -5 -1 4 -5 16 -9 27 -10 16 -1 18 1 7 13 -10 13 -9 14 12
2 24 -12 24 -13 5 -28 -17 -13 -17 -14 -1 -9 11 4 20 1 23 -8 4 -8 10 -12 15
-9 8 5 13 -10 10 -30 -1 -5 9 -2 22 7 14 9 28 13 32 9 12 -13 30 -8 70 18 73
49 75 48 76 -28 1 -37 1 -70 0 -75 0 -4 3 -6 8 -5 10 3 45 -18 71 -43 9 -8 23
-14 31 -11 8 2 3 -6 -11 -18 l-25 -21 28 12 c22 10 30 10 40 0 9 -10 8 -11 -5
-6 -17 7 -20 -17 -3 -32 4 -4 5 -3 2 3 -11 20 32 23 55 5 21 -18 17 -47 -5
-35 -7 4 -8 3 -4 -2 5 -5 12 -9 15 -10 4 0 15 -4 25 -9 11 -4 23 -3 29 3 8 8
5 9 -9 6 -12 -3 -24 -1 -27 5 -5 7 2 10 17 9 22 -2 123 53 139 77 5 7 8 6 8
-1 0 -7 7 -15 16 -18 13 -5 14 -3 6 7 -6 7 -8 17 -4 23 11 15 114 79 124 76 5
-1 11 5 14 13 4 8 11 15 16 15 6 0 17 8 25 17 10 14 13 14 11 3 -2 -8 -7 -18
-13 -22 -6 -4 -2 -8 8 -8 10 0 17 6 16 13 -3 25 1 38 11 32 6 -4 8 -10 6 -14
-3 -4 1 -8 9 -8 8 0 15 4 15 9 0 4 -5 8 -11 8 -6 0 -9 6 -6 13 2 6 8 12 13 12
5 0 23 12 39 27 16 16 35 28 41 28 6 0 17 7 24 15 7 8 17 15 23 15 6 0 3 -6
-7 -13 -17 -13 -18 -14 -2 -20 9 -4 14 -3 11 2 -3 5 -2 12 3 15 4 2 9 40 11
83 l2 79 -111 78 c-61 42 -118 80 -126 83 -8 3 -24 -1 -37 -9 -112 -74 -141
-90 -121 -67 16 19 20 35 18 79 -1 30 -2 58 -3 62 -2 11 -219 159 -238 162
-10 2 -125 -69 -263 -161z m430 -187 c0 -2 -12 -11 -27 -20 l-28 -17 24 20
c23 21 31 25 31 17z m-110 -70 c0 -3 -15 -14 -32 -26 l-33 -22 30 26 c31 27
35 29 35 22z m-136 -101 c-10 -8 -23 -15 -28 -15 -6 0 -1 7 10 15 10 8 23 15
28 15 6 0 1 -7 -10 -15z m-54 -30 c-7 -8 -17 -15 -23 -15 -6 0 -2 7 9 15 25
19 30 19 14 0z m-206 -72 c3 -7 3 -13 1 -13 -7 0 -45 39 -45 45 0 9 40 -19 44
-32z"/>
<path d="M1098 472 c-24 -29 -34 -49 -13 -25 17 19 23 21 35 11 11 -10 11 -9
0 6 -14 18 -13 19 2 13 10 -3 19 -3 22 1 10 16 -33 10 -46 -6z"/>
<path d="M370 466 c0 -2 7 -7 16 -10 8 -3 12 -2 9 4 -6 10 -25 14 -25 6z"/>
<path d="M325 430 c-10 -11 -16 -22 -14 -24 2 -2 12 7 22 20 22 29 17 32 -8 4z"/>
<path d="M264 404 c11 -8 25 -14 30 -13 6 0 5 3 -2 6 -6 2 -10 8 -8 12 3 4 -5
8 -17 8 -21 2 -22 1 -3 -13z"/>
<path d="M956 363 c-6 -14 -5 -15 5 -6 7 7 10 15 7 18 -3 3 -9 -2 -12 -12z"/>
<path d="M910 345 c-7 -8 -18 -15 -24 -15 -17 0 -67 -50 -61 -61 4 -5 9 -9 12
-9 4 0 4 3 0 6 -7 8 34 54 49 54 6 0 17 7 24 15 10 12 16 13 29 3 14 -12 14
-11 2 5 -16 21 -16 21 -31 2z"/>
<path d="M431 314 c0 -11 3 -14 6 -6 3 7 2 16 -1 19 -3 4 -6 -2 -5 -13z"/>
<path d="M452 302 c2 -8 7 -13 12 -12 5 1 13 -4 18 -12 8 -11 9 -11 6 0 -2 8
-7 13 -12 12 -5 -1 -13 4 -18 12 -8 11 -9 11 -6 0z"/>
<path d="M755 236 c-25 -10 -26 -13 -12 -19 12 -5 16 -3 11 5 -5 7 -2 9 9 5 9
-3 18 0 21 9 3 8 4 14 3 14 -1 -1 -15 -7 -32 -14z"/>
<path d="M573 223 c1 -15 5 -19 13 -13 6 6 15 6 19 2 5 -4 5 -1 1 6 -4 7 -11
10 -16 7 -4 -3 -10 1 -13 7 -3 7 -4 3 -4 -9z"/>
<path d="M686 192 c-3 -5 1 -9 9 -9 8 0 15 4 15 9 0 4 -4 8 -9 8 -6 0 -12 -4
-15 -8z"/>
</g>
</svg>
